<svg xmlns="http://www.w3.org/2000/svg" viewBox="0 0 1000 1000" role="img" aria-label="BK"><title>BK — Bhavjot Khurana</title><rect width="1000" height="1000" rx="180" fill="#171310"/><g transform="translate(180.00,322.82) scale(5.1655)"><path d="M8.881784197001252e-16 68.6V-1.4210854715202004e-14H37.4Q42.9 -1.4210854715202004e-14 47.25 2.099999999999987Q51.6 4.199999999999989 54.1 7.999999999999989Q56.6 11.79999999999999 56.6 16.89999999999999Q56.6 20.79999999999999 55.1 23.99999999999999Q53.6 27.19999999999999 51.05 29.34999999999999Q48.5 31.499999999999993 45.300000000000004 32.599999999999994V32.99999999999999Q49.1 33.79999999999999 52.1 36.05Q55.1 38.3 56.800000000000004 41.74999999999999Q58.50000000000001 45.19999999999999 58.50000000000001 49.69999999999999Q58.50000000000001 56.099999999999994 55.650000000000006 60.3Q52.800000000000004 64.5 48.050000000000004 66.55Q43.300000000000004 68.6 37.4 68.6ZM13.000000000000002 57.49999999999999H35.7Q39.800000000000004 57.49999999999999 42.45 55.24999999999999Q45.1 52.99999999999999 45.1 48.19999999999999Q45.1 45.39999999999999 44.0 43.29999999999999Q42.9 41.19999999999999 40.65 40.04999999999999Q38.4 38.89999999999999 34.9 38.89999999999999H13.000000000000002ZM13.000000000000002 27.999999999999993H34.0Q37.0 27.999999999999993 39.05 26.89999999999999Q41.1 25.79999999999999 42.150000000000006 23.89999999999999Q43.2 21.999999999999993 43.2 19.69999999999999Q43.2 15.29999999999999 40.85 13.199999999999992Q38.5 11.099999999999994 34.7 11.099999999999994H13.000000000000002Z" fill="#F7F1E5"/><path d="M64.1 68.6V-1.4210854715202004e-14H77.1V31.79999999999999L107.5 -1.4210854715202004e-14H123.4L96.80000000000001 27.79999999999999L123.9 68.6H108.5L88.0 36.89999999999999L77.1 46.49999999999999V68.6Z" fill="#4FC08C"/></g></svg>